<mxfile host="app.diagrams.net" modified="2022-10-22T12:25:34.452Z" agent="5.0 (Macintosh; Intel Mac OS X 10_15_7) AppleWebKit/537.36 (KHTML, like Gecko) Chrome/106.0.0.0 Safari/537.36" etag="OLPiPwh-D1K0fpRT24Vm" version="20.3.0" type="github">
  <diagram id="WiuyMp_RUBwJ1tMxnkiM" name="Страница 1">
    <mxGraphModel dx="1113" dy="760" grid="1" gridSize="10" guides="1" tooltips="1" connect="1" arrows="1" fold="1" page="1" pageScale="1" pageWidth="827" pageHeight="1169" math="0" shadow="0">
      <root>
        <mxCell id="0" />
        <mxCell id="1" parent="0" />
        <mxCell id="XUD_TKHbQNdrTEIZYywG-11" value="" style="edgeStyle=orthogonalEdgeStyle;rounded=0;orthogonalLoop=1;jettySize=auto;html=1;" edge="1" parent="1" source="XUD_TKHbQNdrTEIZYywG-1" target="XUD_TKHbQNdrTEIZYywG-2">
          <mxGeometry relative="1" as="geometry" />
        </mxCell>
        <mxCell id="XUD_TKHbQNdrTEIZYywG-1" value="Техническая переработка (преобразование) сырья в готовый продукт" style="rounded=1;whiteSpace=wrap;html=1;" vertex="1" parent="1">
          <mxGeometry x="320" y="200" width="200" height="80" as="geometry" />
        </mxCell>
        <mxCell id="XUD_TKHbQNdrTEIZYywG-12" value="" style="edgeStyle=orthogonalEdgeStyle;rounded=0;orthogonalLoop=1;jettySize=auto;html=1;" edge="1" parent="1" source="XUD_TKHbQNdrTEIZYywG-2" target="XUD_TKHbQNdrTEIZYywG-3">
          <mxGeometry relative="1" as="geometry" />
        </mxCell>
        <mxCell id="XUD_TKHbQNdrTEIZYywG-2" value="Результаты-готовые продукты" style="rounded=1;whiteSpace=wrap;html=1;" vertex="1" parent="1">
          <mxGeometry x="560" y="200" width="160" height="80" as="geometry" />
        </mxCell>
        <mxCell id="XUD_TKHbQNdrTEIZYywG-13" value="" style="edgeStyle=orthogonalEdgeStyle;rounded=0;orthogonalLoop=1;jettySize=auto;html=1;" edge="1" parent="1" source="XUD_TKHbQNdrTEIZYywG-3" target="XUD_TKHbQNdrTEIZYywG-6">
          <mxGeometry relative="1" as="geometry" />
        </mxCell>
        <mxCell id="XUD_TKHbQNdrTEIZYywG-17" style="edgeStyle=orthogonalEdgeStyle;rounded=0;orthogonalLoop=1;jettySize=auto;html=1;exitX=0.25;exitY=1;exitDx=0;exitDy=0;entryX=1;entryY=0.5;entryDx=0;entryDy=0;" edge="1" parent="1" source="XUD_TKHbQNdrTEIZYywG-3" target="XUD_TKHbQNdrTEIZYywG-5">
          <mxGeometry relative="1" as="geometry" />
        </mxCell>
        <mxCell id="XUD_TKHbQNdrTEIZYywG-18" value="Защита интересов потребителей" style="edgeLabel;html=1;align=center;verticalAlign=middle;resizable=0;points=[];" vertex="1" connectable="0" parent="XUD_TKHbQNdrTEIZYywG-17">
          <mxGeometry x="0.3946" relative="1" as="geometry">
            <mxPoint as="offset" />
          </mxGeometry>
        </mxCell>
        <mxCell id="XUD_TKHbQNdrTEIZYywG-3" value="Потребители" style="rounded=1;whiteSpace=wrap;html=1;" vertex="1" parent="1">
          <mxGeometry x="760" y="200" width="120" height="80" as="geometry" />
        </mxCell>
        <mxCell id="XUD_TKHbQNdrTEIZYywG-10" value="" style="edgeStyle=orthogonalEdgeStyle;rounded=0;orthogonalLoop=1;jettySize=auto;html=1;" edge="1" parent="1" source="XUD_TKHbQNdrTEIZYywG-4" target="XUD_TKHbQNdrTEIZYywG-1">
          <mxGeometry relative="1" as="geometry" />
        </mxCell>
        <mxCell id="XUD_TKHbQNdrTEIZYywG-4" value="Входящие материалы, капитал, труд" style="rounded=1;whiteSpace=wrap;html=1;" vertex="1" parent="1">
          <mxGeometry x="120" y="200" width="160" height="80" as="geometry" />
        </mxCell>
        <mxCell id="XUD_TKHbQNdrTEIZYywG-14" style="edgeStyle=orthogonalEdgeStyle;rounded=0;orthogonalLoop=1;jettySize=auto;html=1;exitX=0.75;exitY=0;exitDx=0;exitDy=0;entryX=0.75;entryY=1;entryDx=0;entryDy=0;" edge="1" parent="1" source="XUD_TKHbQNdrTEIZYywG-5" target="XUD_TKHbQNdrTEIZYywG-1">
          <mxGeometry relative="1" as="geometry" />
        </mxCell>
        <mxCell id="XUD_TKHbQNdrTEIZYywG-16" value="Лоббирование" style="edgeLabel;html=1;align=center;verticalAlign=middle;resizable=0;points=[];" vertex="1" connectable="0" parent="XUD_TKHbQNdrTEIZYywG-14">
          <mxGeometry x="0.0375" relative="1" as="geometry">
            <mxPoint y="1" as="offset" />
          </mxGeometry>
        </mxCell>
        <mxCell id="XUD_TKHbQNdrTEIZYywG-15" value="Регулирование" style="edgeStyle=orthogonalEdgeStyle;rounded=0;orthogonalLoop=1;jettySize=auto;html=1;exitX=0.25;exitY=0;exitDx=0;exitDy=0;entryX=0.25;entryY=1;entryDx=0;entryDy=0;" edge="1" parent="1" source="XUD_TKHbQNdrTEIZYywG-5" target="XUD_TKHbQNdrTEIZYywG-1">
          <mxGeometry relative="1" as="geometry" />
        </mxCell>
        <mxCell id="XUD_TKHbQNdrTEIZYywG-5" value="Правительство" style="rounded=1;whiteSpace=wrap;html=1;" vertex="1" parent="1">
          <mxGeometry x="320" y="360" width="200" height="40" as="geometry" />
        </mxCell>
        <mxCell id="XUD_TKHbQNdrTEIZYywG-19" style="edgeStyle=orthogonalEdgeStyle;rounded=0;orthogonalLoop=1;jettySize=auto;html=1;exitX=0.25;exitY=1;exitDx=0;exitDy=0;entryX=1;entryY=0.5;entryDx=0;entryDy=0;" edge="1" parent="1" source="XUD_TKHbQNdrTEIZYywG-6" target="XUD_TKHbQNdrTEIZYywG-7">
          <mxGeometry relative="1" as="geometry" />
        </mxCell>
        <mxCell id="XUD_TKHbQNdrTEIZYywG-25" value="Возврат кредита" style="edgeLabel;html=1;align=center;verticalAlign=middle;resizable=0;points=[];" vertex="1" connectable="0" parent="XUD_TKHbQNdrTEIZYywG-19">
          <mxGeometry x="0.2231" y="-1" relative="1" as="geometry">
            <mxPoint as="offset" />
          </mxGeometry>
        </mxCell>
        <mxCell id="XUD_TKHbQNdrTEIZYywG-20" style="edgeStyle=orthogonalEdgeStyle;rounded=0;orthogonalLoop=1;jettySize=auto;html=1;exitX=0.5;exitY=1;exitDx=0;exitDy=0;entryX=1;entryY=0.5;entryDx=0;entryDy=0;" edge="1" parent="1" source="XUD_TKHbQNdrTEIZYywG-6" target="XUD_TKHbQNdrTEIZYywG-8">
          <mxGeometry relative="1" as="geometry" />
        </mxCell>
        <mxCell id="XUD_TKHbQNdrTEIZYywG-26" value="Заработная плата" style="edgeLabel;html=1;align=center;verticalAlign=middle;resizable=0;points=[];" vertex="1" connectable="0" parent="XUD_TKHbQNdrTEIZYywG-20">
          <mxGeometry x="0.2895" y="-1" relative="1" as="geometry">
            <mxPoint as="offset" />
          </mxGeometry>
        </mxCell>
        <mxCell id="XUD_TKHbQNdrTEIZYywG-21" style="edgeStyle=orthogonalEdgeStyle;rounded=0;orthogonalLoop=1;jettySize=auto;html=1;exitX=0.75;exitY=1;exitDx=0;exitDy=0;entryX=1;entryY=0.5;entryDx=0;entryDy=0;" edge="1" parent="1" source="XUD_TKHbQNdrTEIZYywG-6" target="XUD_TKHbQNdrTEIZYywG-9">
          <mxGeometry relative="1" as="geometry" />
        </mxCell>
        <mxCell id="XUD_TKHbQNdrTEIZYywG-27" value="Платежи поставщикам" style="edgeLabel;html=1;align=center;verticalAlign=middle;resizable=0;points=[];" vertex="1" connectable="0" parent="XUD_TKHbQNdrTEIZYywG-21">
          <mxGeometry x="0.432" relative="1" as="geometry">
            <mxPoint as="offset" />
          </mxGeometry>
        </mxCell>
        <mxCell id="XUD_TKHbQNdrTEIZYywG-6" value="Получение дохода" style="rounded=1;whiteSpace=wrap;html=1;" vertex="1" parent="1">
          <mxGeometry x="720" y="400" width="160" height="40" as="geometry" />
        </mxCell>
        <mxCell id="XUD_TKHbQNdrTEIZYywG-22" style="edgeStyle=orthogonalEdgeStyle;rounded=0;orthogonalLoop=1;jettySize=auto;html=1;exitX=0;exitY=0.5;exitDx=0;exitDy=0;entryX=0.75;entryY=1;entryDx=0;entryDy=0;" edge="1" parent="1" source="XUD_TKHbQNdrTEIZYywG-7" target="XUD_TKHbQNdrTEIZYywG-4">
          <mxGeometry relative="1" as="geometry" />
        </mxCell>
        <mxCell id="XUD_TKHbQNdrTEIZYywG-7" value="Финансовые органы" style="rounded=1;whiteSpace=wrap;html=1;" vertex="1" parent="1">
          <mxGeometry x="320" y="440" width="200" height="40" as="geometry" />
        </mxCell>
        <mxCell id="XUD_TKHbQNdrTEIZYywG-23" style="edgeStyle=orthogonalEdgeStyle;rounded=0;orthogonalLoop=1;jettySize=auto;html=1;exitX=0;exitY=0.5;exitDx=0;exitDy=0;entryX=0.5;entryY=1;entryDx=0;entryDy=0;" edge="1" parent="1" source="XUD_TKHbQNdrTEIZYywG-8" target="XUD_TKHbQNdrTEIZYywG-4">
          <mxGeometry relative="1" as="geometry" />
        </mxCell>
        <mxCell id="XUD_TKHbQNdrTEIZYywG-8" value="Рабочая сила" style="rounded=1;whiteSpace=wrap;html=1;" vertex="1" parent="1">
          <mxGeometry x="320" y="520" width="200" height="40" as="geometry" />
        </mxCell>
        <mxCell id="XUD_TKHbQNdrTEIZYywG-24" style="edgeStyle=orthogonalEdgeStyle;rounded=0;orthogonalLoop=1;jettySize=auto;html=1;exitX=0;exitY=0.5;exitDx=0;exitDy=0;entryX=0.25;entryY=1;entryDx=0;entryDy=0;" edge="1" parent="1" source="XUD_TKHbQNdrTEIZYywG-9" target="XUD_TKHbQNdrTEIZYywG-4">
          <mxGeometry relative="1" as="geometry" />
        </mxCell>
        <mxCell id="XUD_TKHbQNdrTEIZYywG-9" value="Поставщики" style="rounded=1;whiteSpace=wrap;html=1;" vertex="1" parent="1">
          <mxGeometry x="320" y="600" width="200" height="40" as="geometry" />
        </mxCell>
        <mxCell id="XUD_TKHbQNdrTEIZYywG-28" value="&lt;font style=&quot;font-size: 18px;&quot;&gt;Промышленная организация&lt;/font&gt;" style="text;html=1;strokeColor=none;fillColor=none;align=center;verticalAlign=middle;whiteSpace=wrap;rounded=0;" vertex="1" parent="1">
          <mxGeometry x="120" y="120" width="330" height="40" as="geometry" />
        </mxCell>
        <mxCell id="XUD_TKHbQNdrTEIZYywG-40" style="edgeStyle=orthogonalEdgeStyle;rounded=0;orthogonalLoop=1;jettySize=auto;html=1;exitX=0.5;exitY=1;exitDx=0;exitDy=0;entryX=0.5;entryY=0;entryDx=0;entryDy=0;fontSize=14;" edge="1" parent="1" source="XUD_TKHbQNdrTEIZYywG-29" target="XUD_TKHbQNdrTEIZYywG-33">
          <mxGeometry relative="1" as="geometry" />
        </mxCell>
        <mxCell id="XUD_TKHbQNdrTEIZYywG-41" style="edgeStyle=orthogonalEdgeStyle;rounded=0;orthogonalLoop=1;jettySize=auto;html=1;exitX=0.5;exitY=1;exitDx=0;exitDy=0;entryX=0.5;entryY=0;entryDx=0;entryDy=0;fontSize=14;" edge="1" parent="1" source="XUD_TKHbQNdrTEIZYywG-29" target="XUD_TKHbQNdrTEIZYywG-30">
          <mxGeometry relative="1" as="geometry" />
        </mxCell>
        <mxCell id="XUD_TKHbQNdrTEIZYywG-42" style="edgeStyle=orthogonalEdgeStyle;rounded=0;orthogonalLoop=1;jettySize=auto;html=1;exitX=0.5;exitY=1;exitDx=0;exitDy=0;entryX=0.5;entryY=0;entryDx=0;entryDy=0;fontSize=14;" edge="1" parent="1" source="XUD_TKHbQNdrTEIZYywG-29" target="XUD_TKHbQNdrTEIZYywG-31">
          <mxGeometry relative="1" as="geometry" />
        </mxCell>
        <mxCell id="XUD_TKHbQNdrTEIZYywG-29" value="&lt;font style=&quot;font-size: 14px;&quot;&gt;Директор&lt;/font&gt;" style="rounded=1;whiteSpace=wrap;html=1;fontSize=18;" vertex="1" parent="1">
          <mxGeometry x="1440" y="200" width="119" height="40" as="geometry" />
        </mxCell>
        <mxCell id="XUD_TKHbQNdrTEIZYywG-43" style="edgeStyle=orthogonalEdgeStyle;rounded=0;orthogonalLoop=1;jettySize=auto;html=1;exitX=0.5;exitY=1;exitDx=0;exitDy=0;entryX=0.5;entryY=0;entryDx=0;entryDy=0;fontSize=14;" edge="1" parent="1" source="XUD_TKHbQNdrTEIZYywG-30" target="XUD_TKHbQNdrTEIZYywG-32">
          <mxGeometry relative="1" as="geometry" />
        </mxCell>
        <mxCell id="XUD_TKHbQNdrTEIZYywG-45" style="edgeStyle=orthogonalEdgeStyle;rounded=0;orthogonalLoop=1;jettySize=auto;html=1;exitX=0.5;exitY=1;exitDx=0;exitDy=0;entryX=0.5;entryY=0;entryDx=0;entryDy=0;fontSize=14;" edge="1" parent="1" source="XUD_TKHbQNdrTEIZYywG-30" target="XUD_TKHbQNdrTEIZYywG-34">
          <mxGeometry relative="1" as="geometry" />
        </mxCell>
        <mxCell id="XUD_TKHbQNdrTEIZYywG-30" value="Отдел продаж" style="rounded=1;whiteSpace=wrap;html=1;fontSize=14;" vertex="1" parent="1">
          <mxGeometry x="1160" y="280" width="120" height="40" as="geometry" />
        </mxCell>
        <mxCell id="XUD_TKHbQNdrTEIZYywG-46" style="edgeStyle=orthogonalEdgeStyle;rounded=0;orthogonalLoop=1;jettySize=auto;html=1;exitX=0.5;exitY=1;exitDx=0;exitDy=0;entryX=0.5;entryY=0;entryDx=0;entryDy=0;fontSize=14;" edge="1" parent="1" source="XUD_TKHbQNdrTEIZYywG-31" target="XUD_TKHbQNdrTEIZYywG-35">
          <mxGeometry relative="1" as="geometry" />
        </mxCell>
        <mxCell id="XUD_TKHbQNdrTEIZYywG-31" value="Бухгалтерия" style="rounded=1;whiteSpace=wrap;html=1;fontSize=14;" vertex="1" parent="1">
          <mxGeometry x="1360" y="280" width="120" height="40" as="geometry" />
        </mxCell>
        <mxCell id="XUD_TKHbQNdrTEIZYywG-32" value="Менеджер" style="rounded=1;whiteSpace=wrap;html=1;fontSize=14;" vertex="1" parent="1">
          <mxGeometry x="1080" y="360" width="120" height="40" as="geometry" />
        </mxCell>
        <mxCell id="XUD_TKHbQNdrTEIZYywG-47" style="edgeStyle=orthogonalEdgeStyle;rounded=0;orthogonalLoop=1;jettySize=auto;html=1;exitX=0.5;exitY=1;exitDx=0;exitDy=0;entryX=0.5;entryY=0;entryDx=0;entryDy=0;fontSize=14;" edge="1" parent="1" source="XUD_TKHbQNdrTEIZYywG-33" target="XUD_TKHbQNdrTEIZYywG-36">
          <mxGeometry relative="1" as="geometry" />
        </mxCell>
        <mxCell id="XUD_TKHbQNdrTEIZYywG-48" style="edgeStyle=orthogonalEdgeStyle;rounded=0;orthogonalLoop=1;jettySize=auto;html=1;exitX=0.5;exitY=1;exitDx=0;exitDy=0;entryX=0.5;entryY=0;entryDx=0;entryDy=0;fontSize=14;" edge="1" parent="1" source="XUD_TKHbQNdrTEIZYywG-33" target="XUD_TKHbQNdrTEIZYywG-38">
          <mxGeometry relative="1" as="geometry" />
        </mxCell>
        <mxCell id="XUD_TKHbQNdrTEIZYywG-49" style="edgeStyle=orthogonalEdgeStyle;rounded=0;orthogonalLoop=1;jettySize=auto;html=1;exitX=0.5;exitY=1;exitDx=0;exitDy=0;entryX=0.5;entryY=0;entryDx=0;entryDy=0;fontSize=14;" edge="1" parent="1" source="XUD_TKHbQNdrTEIZYywG-33" target="XUD_TKHbQNdrTEIZYywG-39">
          <mxGeometry relative="1" as="geometry" />
        </mxCell>
        <mxCell id="XUD_TKHbQNdrTEIZYywG-33" value="IT-отдел" style="rounded=1;whiteSpace=wrap;html=1;fontSize=14;" vertex="1" parent="1">
          <mxGeometry x="1680" y="280" width="120" height="40" as="geometry" />
        </mxCell>
        <mxCell id="XUD_TKHbQNdrTEIZYywG-34" value="Кассир" style="rounded=1;whiteSpace=wrap;html=1;fontSize=14;" vertex="1" parent="1">
          <mxGeometry x="1240" y="360" width="80" height="40" as="geometry" />
        </mxCell>
        <mxCell id="XUD_TKHbQNdrTEIZYywG-35" value="Бухгалтер" style="rounded=1;whiteSpace=wrap;html=1;fontSize=14;" vertex="1" parent="1">
          <mxGeometry x="1360" y="360" width="120" height="40" as="geometry" />
        </mxCell>
        <mxCell id="XUD_TKHbQNdrTEIZYywG-36" value="Android отдел" style="rounded=1;whiteSpace=wrap;html=1;fontSize=14;" vertex="1" parent="1">
          <mxGeometry x="1520" y="360" width="120" height="40" as="geometry" />
        </mxCell>
        <mxCell id="XUD_TKHbQNdrTEIZYywG-38" value="iOS отдел" style="rounded=1;whiteSpace=wrap;html=1;fontSize=14;" vertex="1" parent="1">
          <mxGeometry x="1680" y="360" width="120" height="40" as="geometry" />
        </mxCell>
        <mxCell id="XUD_TKHbQNdrTEIZYywG-39" value="Flutter отдел" style="rounded=1;whiteSpace=wrap;html=1;fontSize=14;" vertex="1" parent="1">
          <mxGeometry x="1840" y="360" width="120" height="40" as="geometry" />
        </mxCell>
        <mxCell id="XUD_TKHbQNdrTEIZYywG-51" value="&lt;font style=&quot;font-size: 18px;&quot;&gt;Иерархическая система IT&amp;nbsp; организации&lt;/font&gt;" style="text;html=1;strokeColor=none;fillColor=none;align=center;verticalAlign=middle;whiteSpace=wrap;rounded=0;" vertex="1" parent="1">
          <mxGeometry x="1080" y="120" width="440" height="40" as="geometry" />
        </mxCell>
      </root>
    </mxGraphModel>
  </diagram>
</mxfile>
